<svg width="200" height="200" viewBox="0 0 200 200" xmlns="http://www.w3.org/2000/svg">
  <defs>
    <radialGradient id="explosionGradient" cx="50%" cy="50%" r="50%">
      <stop offset="0%" stop-color="yellow" />
      <stop offset="50%" stop-color="orange" />
      <stop offset="100%" stop-color="red" />
    </radialGradient>
  </defs>

  <g transform="translate(100,100)">
    <path d="M 0 -50 L 10 -20 L 50 0 L 10 20 L 0 50 L -10 20 L -50 0 L -10 -20 Z" fill="url(#explosionGradient)" />
    <path d="M 0 -40 L 8 -16 L 40 0 L 8 16 L 0 40 L -8 16 L -40 0 L -8 -16 Z" fill="url(#explosionGradient)" transform="rotate(45)" />
    <path d="M 0 -30 L 6 -12 L 30 0 L 6 12 L 0 30 L -6 12 L -30 0 L -6 -12 Z" fill="url(#explosionGradient)" transform="rotate(90)" />
    <path d="M 0 -20 L 4 -8 L 20 0 L 4 8 L 0 20 L -4 8 L -20 0 L -4 -8 Z" fill="url(#explosionGradient)" transform="rotate(135)" />
  </g>
</svg>
